<svg width="127" height="84" viewBox="0 0 127 84" fill="none" xmlns="http://www.w3.org/2000/svg">
<path fill-rule="evenodd" clip-rule="evenodd" d="M95 5C95 7.76142 92.7614 10 90 10H36C33.2386 10 31 7.76142 31 5V5C31 2.23858 33.2386 0 36 0H90C92.7614 0 95 2.23858 95 5V5ZM127 42C127 44.7614 124.761 47 122 47H5C2.23858 47 0 44.7614 0 42V42C0 39.2386 2.23857 37 5 37H122C124.761 37 127 39.2386 127 42V42ZM31 79C31 81.7614 33.2386 84 36 84H90C92.7614 84 95 81.7614 95 79V79C95 76.2386 92.7614 74 90 74H36C33.2386 74 31 76.2386 31 79V79Z" fill="black"/>
</svg>
